<svg xmlns="http://www.w3.org/2000/svg" width="796" height="154" viewBox="0 0 796 154" fill="none"><rect x="2" y="16" width="726" height="122" rx="9" fill="url(#paint0_linear_2860_479)"></rect><rect x="2" y="16" width="726" height="122" rx="9" stroke="#28DA39" stroke-width="4"></rect><path d="M574.098 83.8994C568.794 83.8994 564.906 80.2034 564.906 75.2114C564.906 70.2194 568.794 66.5234 574.098 66.5234C579.378 66.5234 583.29 70.1954 583.29 75.2114C583.29 80.2274 579.378 83.8994 574.098 83.8994ZM574.098 80.5874C577.098 80.5874 579.354 78.4034 579.354 75.2114C579.354 72.0194 577.098 69.8354 574.098 69.8354C571.098 69.8354 568.842 72.0194 568.842 75.2114C568.842 78.4034 571.098 80.5874 574.098 80.5874Z" fill="white"></path><path d="M560.906 66.8105H564.77L557.498 83.6105H553.658L546.41 66.8105H550.61L555.722 78.8105L560.906 66.8105Z" fill="white"></path><path d="M540.836 83.6105V66.8105H544.724V83.6105H540.836Z" fill="white"></path><path d="M531.051 83.8994C528.387 83.8994 525.699 83.1074 524.211 81.9554L525.531 79.0274C526.947 80.0594 529.059 80.7794 531.075 80.7794C533.379 80.7794 534.315 80.0114 534.315 78.9794C534.315 75.8354 524.547 77.9954 524.547 71.7554C524.547 68.8994 526.851 66.5234 531.627 66.5234C533.739 66.5234 535.899 67.0274 537.459 68.0114L536.259 70.9634C534.699 70.0754 533.091 69.6434 531.603 69.6434C529.299 69.6434 528.411 70.5074 528.411 71.5634C528.411 74.6594 538.179 72.5234 538.179 78.6914C538.179 81.4994 535.851 83.8994 531.051 83.8994Z" fill="white"></path><path d="M514.081 83.8985C509.305 83.8985 506.473 81.1625 506.473 76.2185V66.8105H510.361V76.0745C510.361 79.2665 511.753 80.5865 514.105 80.5865C516.481 80.5865 517.849 79.2665 517.849 76.0745V66.8105H521.689V76.2185C521.689 81.1625 518.857 83.8985 514.081 83.8985Z" fill="white"></path><path d="M492.344 83.6105V66.8105H496.232V80.4425H504.656V83.6105H492.344Z" fill="white"></path><path d="M482.784 83.8994C477.576 83.8994 473.688 80.2754 473.688 75.2114C473.688 70.1474 477.575 66.5234 482.807 66.5234C485.711 66.5234 488.135 67.5794 489.719 69.4994L487.224 71.8034C486.096 70.5074 484.679 69.8354 482.999 69.8354C479.855 69.8354 477.624 72.0434 477.624 75.2114C477.624 78.3794 479.855 80.5874 482.999 80.5874C484.679 80.5874 486.096 79.9154 487.224 78.5954L489.719 80.8994C488.135 82.8434 485.712 83.8994 482.784 83.8994Z" fill="white"></path><path d="M464.957 83.8994C462.293 83.8994 459.605 83.1074 458.117 81.9554L459.437 79.0274C460.853 80.0594 462.965 80.7794 464.981 80.7794C467.285 80.7794 468.221 80.0114 468.221 78.9794C468.221 75.8354 458.453 77.9954 458.453 71.7554C458.453 68.8994 460.757 66.5234 465.533 66.5234C467.645 66.5234 469.805 67.0274 471.365 68.0114L470.165 70.9634C468.605 70.0754 466.997 69.6434 465.509 69.6434C463.205 69.6434 462.317 70.5074 462.317 71.5634C462.317 74.6594 472.085 72.5234 472.085 78.6914C472.085 81.4994 469.757 83.8994 464.957 83.8994Z" fill="white"></path><path d="M447.2 80.4905H456.344V83.6105H443.336V66.8105H456.032V69.9305H447.2V73.5785H455V76.6025H447.2V80.4905Z" fill="white"></path><path d="M424.426 83.8994C419.122 83.8994 415.234 80.2034 415.234 75.2114C415.234 70.2194 419.122 66.5234 424.426 66.5234C429.706 66.5234 433.618 70.1954 433.618 75.2114C433.618 80.2274 429.706 83.8994 424.426 83.8994ZM424.426 80.5874C427.426 80.5874 429.682 78.4034 429.682 75.2114C429.682 72.0194 427.426 69.8354 424.426 69.8354C421.426 69.8354 419.17 72.0194 419.17 75.2114C419.17 78.4034 421.426 80.5874 424.426 80.5874Z" fill="white"></path><path d="M405.169 83.6105V69.9785H399.793V66.8105H414.433V69.9785H409.057V83.6105H405.169Z" fill="white"></path><path d="M393.873 66.8105H397.713V83.6105H394.521L386.145 73.4105V83.6105H382.305V66.8105H385.521L393.873 77.0105V66.8105Z" fill="white"></path><path d="M370.067 80.4905H379.211V83.6105H366.203V66.8105H378.899V69.9305H370.067V73.5785H377.867V76.6025H370.067V80.4905Z" fill="white"></path><path d="M362.217 83.6105H358.569L358.545 73.5305L353.601 81.8345H351.849L346.929 73.7465V83.6105H343.281V66.8105H346.497L352.785 77.2505L358.977 66.8105H362.169L362.217 83.6105Z" fill="white"></path><path d="M335.406 83.6105V66.8105H339.294V83.6105H335.406Z" fill="white"></path><path d="M315.578 83.6105V66.8105H323.21C328.706 66.8105 332.474 70.1225 332.474 75.2105C332.474 80.2985 328.706 83.6105 323.21 83.6105H315.578ZM319.466 80.4185H323.018C326.354 80.4185 328.538 78.4265 328.538 75.2105C328.538 71.9945 326.354 70.0025 323.018 70.0025H319.466V80.4185Z" fill="white"></path><path d="M307.763 66.8105H311.603V83.6105H308.411L300.035 73.4105V83.6105H296.195V66.8105H299.411L307.763 77.0105V66.8105Z" fill="white"></path><path d="M283.958 80.4905H293.102V83.6105H280.094V66.8105H292.79V69.9305H283.958V73.5785H291.758V76.6025H283.958V80.4905Z" fill="white"></path><path d="M268.739 83.6105V69.9785H263.363V66.8105H278.003V69.9785H272.627V83.6105H268.739Z" fill="white"></path><path d="M260.28 83.6105L258.792 80.0105H250.992L249.504 83.6105H245.52L253.008 66.8105H256.848L264.36 83.6105H260.28ZM252.24 77.0585H257.568L254.904 70.6265L252.24 77.0585Z" fill="white"></path><path d="M228.817 83.8994C223.513 83.8994 219.625 80.2034 219.625 75.2114C219.625 70.2194 223.513 66.5234 228.817 66.5234C234.097 66.5234 238.009 70.1954 238.009 75.2114C238.009 80.2274 234.097 83.8994 228.817 83.8994ZM228.817 80.5874C231.817 80.5874 234.073 78.4034 234.073 75.2114C234.073 72.0194 231.817 69.8354 228.817 69.8354C225.817 69.8354 223.561 72.0194 223.561 75.2114C223.561 78.4034 225.817 80.5874 228.817 80.5874Z" fill="white"></path><path d="M217.911 83.6105H213.735L210.495 78.9305H210.303H206.919V83.6105H203.031V66.8105H210.303C214.791 66.8105 217.599 69.1385 217.599 72.9065C217.599 75.4265 216.327 77.2745 214.143 78.2105L217.911 83.6105ZM213.663 72.9065C213.663 71.0585 212.463 69.9785 210.087 69.9785H206.919V75.8345H210.087C212.463 75.8345 213.663 74.7305 213.663 72.9065Z" fill="white"></path><path d="M190.794 80.4905H199.938V83.6105H186.93V66.8105H199.626V69.9305H190.794V73.5785H198.594V76.6025H190.794V80.4905Z" fill="white"></path><path d="M175.479 83.8985C170.703 83.8985 167.871 81.1625 167.871 76.2185V66.8105H171.759V76.0745C171.759 79.2665 173.151 80.5865 175.503 80.5865C177.879 80.5865 179.247 79.2665 179.247 76.0745V66.8105H183.087V76.2185C183.087 81.1625 180.255 83.8985 175.479 83.8985Z" fill="white"></path><path d="M164.207 83.3474L165.935 85.4114C164.831 86.7554 163.247 87.4754 161.399 87.4754C158.903 87.4754 157.151 86.5634 154.559 83.8274C149.951 83.2514 146.711 79.7714 146.711 75.2114C146.711 70.2194 150.599 66.5234 155.903 66.5234C161.183 66.5234 165.095 70.1954 165.095 75.2114C165.095 79.1474 162.671 82.2674 159.095 83.4194C159.911 84.2834 160.631 84.5954 161.471 84.5954C162.503 84.5954 163.415 84.1874 164.207 83.3474ZM150.647 75.2114C150.647 78.4034 152.903 80.5874 155.903 80.5874C158.903 80.5874 161.159 78.4034 161.159 75.2114C161.159 72.0194 158.903 69.8354 155.903 69.8354C152.903 69.8354 150.647 72.0194 150.647 75.2114Z" fill="white"></path><g clip-path="url(#clip0_2860_479)"><path d="M781.711 0H656.289C648.397 0 642 6.39729 642 14.2887V139.711C642 147.603 648.397 154 656.289 154H781.711C789.603 154 796 147.603 796 139.711V14.2887C796 6.39729 789.603 0 781.711 0Z" fill="url(#paint1_linear_2860_479)"></path><path d="M752.949 43.0499C744.938 34.9587 734.299 29.9967 722.951 29.0588C711.604 28.1209 700.295 31.2689 691.064 37.935C681.833 44.601 675.288 54.3463 672.61 65.413C669.931 76.4797 671.295 88.1393 676.457 98.2886L671.39 122.885C671.338 123.13 671.336 123.383 671.386 123.628C671.436 123.874 671.535 124.106 671.679 124.311C671.889 124.622 672.19 124.862 672.54 124.998C672.89 125.134 673.274 125.16 673.639 125.072L697.745 119.359C707.866 124.389 719.443 125.666 730.417 122.961C741.391 120.257 751.049 113.747 757.674 104.59C764.298 95.433 767.459 84.2226 766.594 72.9538C765.729 61.6849 760.894 51.0884 752.949 43.0499ZM745.433 103.04C739.89 108.567 732.752 112.216 725.026 113.472C717.299 114.728 709.373 113.527 702.365 110.04L699.005 108.377L684.227 111.877L684.27 111.694L687.333 96.8186L685.688 93.5724C682.107 86.5397 680.844 78.5542 682.079 70.7597C683.315 62.9653 686.985 55.7617 692.565 50.1811C699.577 43.1719 709.085 39.2343 718.999 39.2343C728.913 39.2343 738.421 43.1719 745.433 50.1811C745.492 50.2496 745.557 50.3139 745.625 50.3736C752.55 57.4009 756.415 66.8808 756.379 76.7464C756.343 86.612 752.408 96.0634 745.433 103.04Z" fill="white"></path><path d="M744.121 92.1284C742.31 94.9809 739.449 98.4722 735.853 99.3384C729.553 100.861 719.884 99.3909 707.853 88.1734L707.704 88.0422C697.125 78.2334 694.378 70.0697 695.043 63.5947C695.41 59.9197 698.473 56.5947 701.054 54.4247C701.462 54.0764 701.946 53.8284 702.467 53.7006C702.988 53.5728 703.532 53.5686 704.055 53.6885C704.578 53.8084 705.065 54.049 705.479 54.3911C705.892 54.7331 706.22 55.1671 706.435 55.6584L710.329 64.4084C710.582 64.9758 710.676 65.6013 710.6 66.2179C710.525 66.8345 710.283 67.4189 709.9 67.9084L707.931 70.4634C707.509 70.991 707.254 71.6329 707.199 72.3065C707.145 72.9802 707.293 73.6548 707.625 74.2434C708.728 76.1772 711.37 79.0209 714.301 81.6547C717.591 84.6297 721.24 87.3509 723.55 88.2784C724.168 88.531 724.848 88.5926 725.501 88.4553C726.155 88.3181 726.752 87.9883 727.216 87.5084L729.5 85.2072C729.941 84.7727 730.489 84.4628 731.088 84.309C731.688 84.1553 732.317 84.1633 732.913 84.3322L742.161 86.9572C742.672 87.1137 743.139 87.3848 743.529 87.7497C743.918 88.1147 744.219 88.5638 744.408 89.0628C744.597 89.5618 744.669 90.0975 744.62 90.6288C744.57 91.1602 744.4 91.6731 744.121 92.1284Z" fill="white"></path></g><defs><linearGradient id="paint0_linear_2860_479" x1="20.3911" y1="140" x2="695.335" y2="140" gradientUnits="userSpaceOnUse"><stop stop-color="#02BB14"></stop><stop offset="1" stop-color="#28DA39"></stop></linearGradient><linearGradient id="paint1_linear_2860_479" x1="719" y1="0.63" x2="719" y2="146.545" gradientUnits="userSpaceOnUse"><stop stop-color="#35DB23"></stop><stop offset="1" stop-color="#27A11A"></stop></linearGradient><clipPath id="clip0_2860_479"><rect width="154" height="154" fill="white" transform="translate(642)"></rect></clipPath></defs></svg>