<svg xmlns="http://www.w3.org/2000/svg" width="217" height="37" viewBox="0 0 217 37" fill="none"><path fill-rule="evenodd" clip-rule="evenodd" d="M31.7578 3.45023C35.518 4.32278 36.9563 6.52151 38.7597 9.54779H31.7578V3.45023ZM9.78302 9.80191C10.5192 9.80191 11.0536 10.1573 11.0536 10.9878C11.0536 11.6883 10.4868 12.2564 9.78666 12.2584H2.11044C1.40864 12.2584 0.839844 12.8275 0.839844 13.529C0.839844 14.2308 1.40864 14.7996 2.11044 14.7996H13.5458C14.2543 14.7996 14.8214 15.3681 14.8214 16.0702C14.8214 16.772 14.2526 17.3408 13.5508 17.3408H2.11044C1.40864 17.3408 0.839844 17.9096 0.839844 18.6114C0.839844 19.3132 1.40864 19.882 2.11044 19.882H4.90577V23.6938C4.90577 24.3956 5.47456 24.9644 6.17637 24.9644H8.73047C9.18577 27.2072 11.1674 28.8609 13.5035 28.8609C15.8395 28.8609 17.8212 27.2072 18.2765 24.9644H31.1777C31.633 27.2072 33.6147 28.8609 35.9508 28.8609C38.2868 28.8609 40.2685 27.2072 40.7238 24.9644H42.9391C43.6409 24.9644 44.2097 24.3956 44.2097 23.6938V16.0702C44.2097 12.3421 40.2774 12.0946 40.2738 12.089H30.4872C29.7854 12.089 29.2166 11.5202 29.2166 10.8184V3.19479H6.17637C5.47456 3.19479 4.90577 3.76358 4.90577 4.46539V7.26071H3.38105C2.67924 7.26071 2.11044 7.8295 2.11044 8.53131C2.11044 9.23312 2.67924 9.80191 3.38105 9.80191H9.78302ZM37.5979 22.3431C38.5075 23.2527 38.5075 24.7282 37.5979 25.6378C36.1347 27.1009 33.6213 26.06 33.6213 23.9903C33.6213 21.9209 36.1347 20.88 37.5979 22.3431ZM15.1506 22.3431C16.0602 23.2527 16.0602 24.7282 15.1506 25.6378C13.6875 27.1009 11.1741 26.06 11.1741 23.9903C11.1741 21.9209 13.6875 20.88 15.1506 22.3431Z" fill="#313131"></path><path d="M69.648 4.67256H64.1704V8.06477H69.0502V9.26038H64.1704V13.1948H62.7802V3.46305H69.648V4.67256Z" fill="#313131"></path><path d="M79.6268 13.1948H78.1114L76.0121 10.2058C75.8175 10.2197 75.6089 10.2336 75.4004 10.2336H72.9953V13.1948H71.605V3.46305H75.4004C77.9307 3.46305 79.4599 4.74208 79.4599 6.85525C79.4599 8.35672 78.6814 9.44112 77.3189 9.9277L79.6268 13.1948ZM75.3587 9.05185C77.1382 9.05185 78.0697 8.2455 78.0697 6.85525C78.0697 5.465 77.1382 4.67256 75.3587 4.67256H72.9953V9.05185H75.3587Z" fill="#313131"></path><path d="M83.0963 11.9853H88.7685V13.1948H81.706V3.46305H88.5739V4.67256H83.0963V7.6616H87.9761V8.84331H83.0963V11.9853Z" fill="#313131"></path><path d="M92.9521 13.1948V4.67256H89.6155V3.46305H97.665V4.67256H94.3284V13.1948H92.9521Z" fill="#313131"></path><path d="M100.569 11.9853H106.242V13.1948H99.1792V3.46305H106.047V4.67256H100.569V7.6616H105.449V8.84331H100.569V11.9853Z" fill="#313131"></path><path d="M118.969 11.4431V8.27331H120.304V12.0687C119.331 12.8889 117.982 13.306 116.62 13.306C113.631 13.306 111.434 11.2067 111.434 8.32892C111.434 5.4511 113.631 3.35183 116.647 3.35183C118.191 3.35183 119.497 3.86622 120.387 4.8533L119.525 5.71525C118.719 4.93671 117.801 4.58915 116.703 4.58915C114.451 4.58915 112.824 6.16013 112.824 8.32892C112.824 10.4699 114.451 12.0687 116.689 12.0687C117.509 12.0687 118.274 11.888 118.969 11.4431Z" fill="#313131"></path><path d="M130.987 13.1948H129.472L127.373 10.2058C127.178 10.2197 126.969 10.2336 126.761 10.2336H124.356V13.1948H122.965V3.46305H126.761C129.291 3.46305 130.82 4.74208 130.82 6.85525C130.82 8.35672 130.042 9.44112 128.679 9.9277L130.987 13.1948ZM126.719 9.05185C128.499 9.05185 129.43 8.2455 129.43 6.85525C129.43 5.465 128.499 4.67256 126.719 4.67256H124.356V9.05185H126.719Z" fill="#313131"></path><path d="M139.239 0.863281L136.904 2.6706H135.652L137.543 0.863281H139.239ZM140.338 13.1948L139.267 10.7619H134.095L133.025 13.1948H131.593L136 3.46305H137.376L141.797 13.1948H140.338ZM134.582 9.64965H138.78L136.681 4.8811L134.582 9.64965Z" fill="#313131"></path><path d="M144.693 13.1948V4.67256H141.356V3.46305H149.406V4.67256H146.069V13.1948H144.693Z" fill="#313131"></path><path d="M150.92 13.1948V3.46305H152.31V13.1948H150.92Z" fill="#313131"></path><path d="M158.06 13.306C156.572 13.306 155.112 12.8055 154.334 12.0826L154.848 10.9982C155.571 11.6516 156.808 12.1243 158.06 12.1243C159.742 12.1243 160.465 11.4709 160.465 10.6228C160.465 8.2455 154.57 9.74697 154.57 6.13232C154.57 4.63086 155.738 3.35183 158.296 3.35183C159.436 3.35183 160.618 3.65768 161.424 4.21378L160.965 5.32598C160.117 4.78378 159.158 4.53354 158.296 4.53354C156.642 4.53354 155.933 5.22866 155.933 6.07671C155.933 8.45404 161.827 6.96647 161.827 10.5394C161.827 12.027 160.632 13.306 158.06 13.306Z" fill="#313131"></path><path d="M171.387 3.46305C173.918 3.46305 175.447 4.74208 175.447 6.85525C175.447 8.96843 173.918 10.2475 171.387 10.2475H168.982V13.1948H167.592V3.46305H171.387ZM171.346 9.03794C173.125 9.03794 174.057 8.2455 174.057 6.85525C174.057 5.465 173.125 4.67256 171.346 4.67256H168.982V9.03794H171.346Z" fill="#313131"></path><path d="M184.272 13.1948L183.201 10.7619H178.029L176.959 13.1948H175.527L179.934 3.46305H181.31L185.731 13.1948H184.272ZM178.516 9.64965H182.714L180.615 4.8811L178.516 9.64965Z" fill="#313131"></path><path d="M195.205 13.1948H193.689L191.59 10.2058C191.395 10.2197 191.187 10.2336 190.978 10.2336H188.573V13.1948H187.183V3.46305H190.978C193.509 3.46305 195.038 4.74208 195.038 6.85525C195.038 8.35672 194.259 9.44112 192.897 9.9277L195.205 13.1948ZM190.937 9.05185C192.716 9.05185 193.648 8.2455 193.648 6.85525C193.648 5.465 192.716 4.67256 190.937 4.67256H188.573V9.05185H190.937Z" fill="#313131"></path><path d="M204.555 13.1948L203.485 10.7619H198.313L197.242 13.1948H195.81L200.217 3.46305H201.594L206.015 13.1948H204.555ZM198.799 9.64965H202.998L200.899 4.8811L198.799 9.64965Z" fill="#313131"></path><path d="M66.197 36.7502V24.6015H61.406V21.7783H74.4529V24.6015H69.6619V36.7502H66.197Z" fill="#313131"></path><path d="M83.3591 37.0068C78.6322 37.0068 75.1673 33.713 75.1673 29.2642C75.1673 24.8154 78.6322 21.5216 83.3591 21.5216C88.0645 21.5216 91.5508 24.794 91.5508 29.2642C91.5508 33.7344 88.0645 37.0068 83.3591 37.0068ZM83.3591 34.0552C86.0326 34.0552 88.0431 32.1089 88.0431 29.2642C88.0431 26.4195 86.0326 24.4732 83.3591 24.4732C80.6855 24.4732 78.675 26.4195 78.675 29.2642C78.675 32.1089 80.6855 34.0552 83.3591 34.0552Z" fill="#313131"></path><path d="M94.1549 36.7502V21.7783H100.956C105.854 21.7783 109.212 24.7299 109.212 29.2642C109.212 33.7986 105.854 36.7502 100.956 36.7502H94.1549ZM97.6198 33.9055H100.785C103.758 33.9055 105.705 32.1303 105.705 29.2642C105.705 26.3982 103.758 24.6229 100.785 24.6229H97.6198V33.9055Z" fill="#313131"></path><path d="M119.076 37.0068C114.349 37.0068 110.884 33.713 110.884 29.2642C110.884 24.8154 114.349 21.5216 119.076 21.5216C123.782 21.5216 127.268 24.794 127.268 29.2642C127.268 33.7344 123.782 37.0068 119.076 37.0068ZM119.076 34.0552C121.75 34.0552 123.76 32.1089 123.76 29.2642C123.76 26.4195 121.75 24.4732 119.076 24.4732C116.403 24.4732 114.392 26.4195 114.392 29.2642C114.392 32.1089 116.403 34.0552 119.076 34.0552Z" fill="#313131"></path><path d="M146.923 28.9648C148.591 29.4995 149.661 30.7828 149.661 32.665C149.661 35.253 147.607 36.7502 143.672 36.7502H135.929V21.7783H143.244C146.987 21.7783 148.912 23.3396 148.912 25.671C148.912 27.1681 148.142 28.3231 146.923 28.9648ZM142.816 24.3876H139.373V27.9167H142.816C144.506 27.9167 145.426 27.3179 145.426 26.1415C145.426 24.9651 144.506 24.3876 142.816 24.3876ZM143.415 34.1408C145.212 34.1408 146.174 33.5847 146.174 32.3014C146.174 31.0395 145.212 30.4406 143.415 30.4406H139.373V34.1408H143.415Z" fill="#313131"></path><path d="M165.545 36.7502H161.823L158.936 32.5794H155.749V36.7502H152.284V21.7783H158.765C162.764 21.7783 165.267 23.8529 165.267 27.2109C165.267 29.4567 164.133 31.1036 162.187 31.9378L165.545 36.7502ZM161.759 27.2109C161.759 25.564 160.689 24.6015 158.572 24.6015H155.749V29.8203H158.572C160.689 29.8203 161.759 28.8364 161.759 27.2109Z" fill="#313131"></path><path d="M179.198 36.7502L177.872 33.5419H170.921L169.595 36.7502H166.044L172.717 21.7783H176.139L182.834 36.7502H179.198ZM172.033 30.9111H176.781L174.407 25.179L172.033 30.9111Z" fill="#313131"></path><path d="M189.307 37.0068C186.933 37.0068 184.537 36.301 183.211 35.2744L184.387 32.665C185.649 33.5847 187.531 34.2263 189.328 34.2263C191.381 34.2263 192.216 33.5419 192.216 32.6222C192.216 29.8203 183.51 31.7453 183.51 26.1843C183.51 23.6391 185.564 21.5216 189.82 21.5216C191.702 21.5216 193.627 21.9708 195.017 22.8477L193.948 25.4785C192.558 24.6871 191.125 24.3021 189.799 24.3021C187.745 24.3021 186.954 25.0721 186.954 26.0132C186.954 28.7723 195.659 26.8687 195.659 32.3655C195.659 34.868 193.584 37.0068 189.307 37.0068Z" fill="#313131"></path><path d="M198.027 36.7502V21.7783H201.492V36.7502H198.027Z" fill="#313131"></path><path d="M205.045 36.7502V21.7783H208.51V33.9269H216.017V36.7502H205.045Z" fill="#313131"></path></svg>